<svg width="64" height="64" viewBox="0 0 64 64" fill="none" xmlns="http://www.w3.org/2000/svg">
<path d="M18.8235 39.638V38.4869H18.0067C17.9527 38.102 17.8483 37.7314 17.7044 37.3861L18.4205 36.9724L17.8447 35.9724L17.1178 36.3897C16.8839 36.0911 16.614 35.8249 16.3118 35.5983L16.7364 34.8644L15.736 34.2888L15.3078 35.0299C14.9659 34.8932 14.6025 34.7961 14.2246 34.7493V33.8824H13.0731V34.7529C12.6988 34.8033 12.3354 34.904 11.9971 35.0443L11.5581 34.2888L10.5577 34.8644L10.9967 35.6234C10.7017 35.8501 10.4354 36.1163 10.2087 36.4076L9.45298 35.9688L8.87722 36.9688L9.6293 37.4041C9.48536 37.7422 9.3882 38.1055 9.33423 38.4833H8.47058V39.638H9.32343C9.37021 40.0193 9.46737 40.3862 9.60412 40.728L8.87361 41.1488L9.44938 42.1489L10.1691 41.7316C10.3994 42.0374 10.6693 42.3072 10.968 42.5446L10.5577 43.2568L11.5581 43.8324L11.9611 43.1309C12.3102 43.2784 12.6809 43.3827 13.0695 43.4331V44.2353H14.221V43.4367C14.6133 43.3863 14.9875 43.2856 15.3366 43.1417L15.7324 43.8288L16.7328 43.2532L16.3369 42.5662C16.6428 42.3287 16.9163 42.0553 17.1538 41.7496L17.8411 42.1453L18.4169 41.1452L17.726 40.7459C17.8699 40.397 17.9671 40.0229 18.0175 39.6344H18.8235V39.638ZM13.6704 40.6416C12.8176 40.6416 12.1267 39.9474 12.1267 39.0984C12.1267 38.2458 12.8212 37.5552 13.6704 37.5552C14.5233 37.5552 15.2142 38.2494 15.2142 39.0984C15.2142 39.9474 14.5197 40.6416 13.6704 40.6416Z" fill="#232323" fill-opacity="0.15"/>
<path d="M48.9412 17.0498V15.8986H48.1243C48.0704 15.5137 47.966 15.1432 47.8221 14.7979L48.5382 14.3842L47.9624 13.3841L47.2355 13.8014C47.0016 13.5029 46.7317 13.2367 46.4294 13.01L46.8541 12.2762L45.8537 11.7006L45.4254 12.4417C45.0836 12.305 44.7201 12.2078 44.3423 12.1611V11.2941H43.1908V12.1647C42.8165 12.215 42.4531 12.3158 42.1148 12.456L41.6758 11.7006L40.6754 12.2762L41.1144 13.0352C40.8193 13.2618 40.5531 13.528 40.3263 13.8194L39.5707 13.3805L38.9949 14.3806L39.747 14.8159C39.603 15.154 39.5059 15.5173 39.4519 15.895H38.5883V17.0498H39.4411C39.4879 17.4311 39.585 17.798 39.7218 18.1397L38.9913 18.5606L39.5671 19.5607L40.2868 19.1434C40.5171 19.4491 40.787 19.7189 41.0856 19.9564L40.6754 20.6686L41.6758 21.2442L42.0788 20.5427C42.4279 20.6902 42.7985 20.7945 43.1872 20.8449V21.6471H44.3387V20.8485C44.7309 20.7981 45.1052 20.6974 45.4542 20.5535L45.8501 21.2406L46.8505 20.665L46.4546 19.9779C46.7605 19.7405 47.034 19.4671 47.2715 19.1614L47.9588 19.5571L48.5346 18.557L47.8437 18.1577C47.9876 17.8088 48.0848 17.4347 48.1351 17.0462H48.9412V17.0498ZM43.7881 18.0534C42.9353 18.0534 42.2444 17.3591 42.2444 16.5102C42.2444 15.6576 42.9389 14.9669 43.7881 14.9669C44.641 14.9669 45.3319 15.6612 45.3319 16.5102C45.3319 17.3591 44.6374 18.0534 43.7881 18.0534Z" fill="#232323" fill-opacity="0.15"/>
<path d="M30.1177 39.5327V38.5908H29.4493C29.4052 38.2759 29.3198 37.9728 29.202 37.6902L29.7879 37.3517L29.3169 36.5335L28.7221 36.8749C28.5307 36.6307 28.3099 36.4129 28.0626 36.2274L28.41 35.627L27.5915 35.1561L27.2412 35.7624C26.9615 35.6506 26.6641 35.5711 26.3549 35.5328V34.8235H25.4128V35.5358C25.1066 35.577 24.8092 35.6594 24.5325 35.7742L24.1733 35.1561L23.3548 35.627L23.714 36.248C23.4725 36.4335 23.2547 36.6513 23.0692 36.8897L22.4509 36.5306L21.9798 37.3488L22.5951 37.7049C22.4774 37.9816 22.3979 38.2789 22.3537 38.5879H21.6471V39.5327H22.3449C22.3832 39.8447 22.4627 40.1449 22.5745 40.4245L21.9768 40.7688L22.4479 41.587L23.0368 41.2456C23.2252 41.4958 23.446 41.7165 23.6904 41.9108L23.3548 42.4935L24.1733 42.9645L24.503 42.3905C24.7886 42.5112 25.0919 42.5966 25.4098 42.6378V43.2941H26.352V42.6407C26.6729 42.5995 26.9791 42.5171 27.2647 42.3994L27.5886 42.9615L28.4071 42.4906L28.0832 41.9285C28.3335 41.7342 28.5572 41.5105 28.7516 41.2603L29.3139 41.5841L29.785 40.7659L29.2197 40.4392C29.3375 40.1537 29.417 39.8476 29.4582 39.5297H30.1177V39.5327ZM25.9015 40.3538C25.2037 40.3538 24.6384 39.7858 24.6384 39.0912C24.6384 38.3936 25.2067 37.8285 25.9015 37.8285C26.5993 37.8285 27.1646 38.3966 27.1646 39.0912C27.1646 39.7858 26.5964 40.3538 25.9015 40.3538Z" fill="#232323" fill-opacity="0.15"/>
<path d="M28.2353 50.3036V49.4664H27.6413C27.602 49.1864 27.5261 48.917 27.4214 48.6658L27.9422 48.365L27.5235 47.6377L26.9948 47.9411C26.8247 47.724 26.6284 47.5304 26.4086 47.3656L26.7174 46.8319L25.9899 46.4133L25.6784 46.9522C25.4298 46.8528 25.1655 46.7822 24.8907 46.7481V46.1176H24.0532V46.7508C23.781 46.7874 23.5167 46.8606 23.2707 46.9627L22.9514 46.4133L22.2239 46.8319L22.5431 47.3839C22.3285 47.5487 22.1349 47.7423 21.97 47.9542L21.4204 47.635L21.0017 48.3623L21.5486 48.6789C21.444 48.9248 21.3733 49.1891 21.334 49.4638H20.7059V50.3036H21.3262C21.3602 50.5809 21.4309 50.8477 21.5303 51.0963L20.999 51.4024L21.4178 52.1297L21.9412 51.8262C22.1087 52.0486 22.305 52.2448 22.5222 52.4174L22.2239 52.9355L22.9514 53.354L23.2445 52.8439C23.4984 52.9512 23.7679 53.027 24.0506 53.0636V53.6471H24.8881V53.0663C25.1733 53.0296 25.4455 52.9564 25.6994 52.8517L25.9873 53.3514L26.7148 52.9328L26.4269 52.4331C26.6494 52.2605 26.8483 52.0616 27.021 51.8393L27.5209 52.1271L27.9396 51.3997L27.4371 51.1093C27.5418 50.8556 27.6125 50.5835 27.6491 50.3009H28.2353V50.3036ZM24.4877 51.0335C23.8674 51.0335 23.3649 50.5286 23.3649 49.9111C23.3649 49.2911 23.87 48.7888 24.4877 48.7888C25.1079 48.7888 25.6104 49.2937 25.6104 49.9111C25.6104 50.5286 25.1053 51.0335 24.4877 51.0335Z" fill="#232323" fill-opacity="0.15"/>
<path d="M31.9496 27.4259L30.8303 27.6945L31.0209 28.4888C30.6592 28.6311 30.3233 28.8191 30.0211 29.0396L29.4517 28.4398L28.6136 29.2331L29.189 29.8425C28.9533 30.1397 28.7574 30.4642 28.6076 30.811L27.7949 30.5694L27.4687 31.6765L28.2892 31.92C28.2361 32.2843 28.2265 32.6604 28.2692 33.0387L27.4262 33.241L27.6949 34.3607L28.5414 34.1576C28.6777 34.5097 28.8605 34.8396 29.0759 35.1358L28.4437 35.739L29.2369 36.5775L29.8725 35.9734C30.1617 36.2075 30.4827 36.4043 30.819 36.5567L30.5686 37.394L31.6754 37.7204L31.9231 36.8875C32.2855 36.9486 32.6615 36.9583 33.0413 36.9226L33.2429 37.7624L34.3657 37.4929L34.1667 36.6636C34.5266 36.5291 34.8607 36.349 35.1611 36.1363L35.7408 36.7484L36.5789 35.9552L36.0051 35.3527C36.2487 35.0574 36.4481 34.732 36.6092 34.3862L37.3976 34.6189L37.7238 33.5118L36.9476 33.2836C37.0096 32.9097 37.0245 32.525 36.9828 32.1353L37.7628 31.9481L37.4941 30.8284L36.7175 31.0147C36.577 30.6451 36.3917 30.3047 36.1704 29.9988L36.7461 29.4536L35.953 28.6151L35.3772 29.1604C35.075 28.9184 34.7453 28.7162 34.3926 28.5567L34.6169 27.796L33.5101 27.4695L33.2831 28.2345C32.9102 28.176 32.5238 28.1688 32.1342 28.2105L31.9461 27.4267L31.9496 27.4259ZM34.1281 32.2024C34.3272 33.0317 33.8133 33.8656 32.9878 34.0637C32.1588 34.2627 31.3251 33.7485 31.1269 32.9227C30.9279 32.0934 31.4417 31.2596 32.2672 31.0614C33.0928 30.8633 33.9299 31.3766 34.1281 32.2024Z" fill="#232323" fill-opacity="0.15"/>
<path d="M45.9908 21.5837L45.075 21.8035L45.231 22.4534C44.9351 22.5698 44.6602 22.7236 44.4129 22.9041L43.9471 22.4133L43.2614 23.0624L43.7322 23.561C43.5393 23.8041 43.3791 24.0696 43.2565 24.3534L42.5915 24.1557L42.3247 25.0615L42.996 25.2607C42.9525 25.5588 42.9446 25.8665 42.9796 26.176L42.2898 26.3416L42.5097 27.2577L43.2023 27.0915C43.3138 27.3796 43.4634 27.6495 43.6396 27.8919L43.1224 28.3854L43.7713 29.0714L44.2914 28.5772C44.528 28.7687 44.7907 28.9297 45.0658 29.0544L44.8609 29.7394L45.7665 30.0065L45.9691 29.3251C46.2657 29.375 46.5733 29.383 46.8841 29.3538L47.049 30.0409L47.9677 29.8204L47.8048 29.1419C48.0993 29.0319 48.3726 28.8845 48.6184 28.7104L49.0927 29.2113L49.7784 28.5622L49.309 28.0693C49.5083 27.8277 49.6714 27.5615 49.8033 27.2785L50.4483 27.4689L50.7151 26.5631L50.0801 26.3764C50.1308 26.0705 50.143 25.7557 50.1089 25.4369L50.7471 25.2837L50.5272 24.3676L49.8919 24.5201C49.7769 24.2176 49.6253 23.9391 49.4442 23.6889L49.9152 23.2428L49.2663 22.5568L48.7953 23.0029C48.548 22.8049 48.2782 22.6395 47.9896 22.5089L48.1732 21.8865L47.2676 21.6194L47.0819 22.2453C46.7768 22.1975 46.4606 22.1916 46.1419 22.2257L45.988 21.5844L45.9908 21.5837ZM47.7733 25.4918C47.9361 26.1703 47.5157 26.8526 46.8403 27.0147C46.162 27.1775 45.4799 26.7568 45.3177 26.0811C45.1549 25.4026 45.5753 24.7204 46.2507 24.5583C46.9261 24.3962 47.6111 24.8161 47.7733 25.4918Z" fill="#232323" fill-opacity="0.15"/>
<path d="M40.7763 28.0744L39.9622 28.2698L40.1008 28.8475C39.8378 28.951 39.5935 29.0877 39.3737 29.2481L38.9596 28.8119L38.3501 29.3888L38.7686 29.832C38.5971 30.0481 38.4547 30.2841 38.3457 30.5364L37.7547 30.3606L37.5175 31.1658L38.1142 31.3428C38.0755 31.6078 38.0685 31.8813 38.0996 32.1565L37.4865 32.3036L37.682 33.118L38.2976 32.9702C38.3967 33.2263 38.5296 33.4662 38.6863 33.6817L38.2266 34.1203L38.8034 34.7301L39.2656 34.2908C39.476 34.461 39.7094 34.6042 39.954 34.715L39.7719 35.3239L40.5768 35.5614L40.757 34.9556C41.0206 35 41.294 35.0071 41.5703 34.9811L41.7169 35.5919L42.5335 35.3959L42.3887 34.7928C42.6504 34.695 42.8934 34.564 43.1119 34.4093L43.5335 34.8545L44.143 34.2775L43.7258 33.8394C43.9029 33.6246 44.0479 33.388 44.1651 33.1365L44.7384 33.3057L44.9757 32.5005L44.4112 32.3346C44.4562 32.0627 44.4671 31.7829 44.4368 31.4995L45.0041 31.3633L44.8086 30.549L44.2439 30.6845C44.1417 30.4157 44.0069 30.1681 43.8459 29.9457L44.2646 29.5491L43.6878 28.9393L43.2691 29.3359C43.0493 29.1599 42.8095 29.0129 42.553 28.8968L42.7161 28.3436L41.9112 28.1061L41.7461 28.6625C41.4749 28.62 41.1938 28.6147 40.9105 28.6451L40.7737 28.075L40.7763 28.0744ZM42.3607 31.5483C42.5054 32.1514 42.1317 32.7578 41.5313 32.9019C40.9284 33.0466 40.3221 32.6727 40.1779 32.0721C40.0332 31.469 40.4069 30.8626 41.0073 30.7185C41.6077 30.5744 42.2165 30.9477 42.3607 31.5483Z" fill="#232323" fill-opacity="0.15"/>
<path d="M27.2942 15.378V13.8083H26.1803C26.1067 13.2834 25.9643 12.7782 25.7681 12.3072L26.7446 11.7431L25.9594 10.3794L24.9682 10.9485C24.6493 10.5413 24.2812 10.1783 23.869 9.86928L24.4481 8.86858L23.0839 8.08372L22.5 9.09423C22.0338 8.90783 21.5382 8.77538 21.0229 8.71161V7.52942H19.4527V8.71652C18.9423 8.78519 18.4467 8.92254 17.9854 9.11385L17.3868 8.08372L16.0226 8.86858L16.6213 9.90362C16.2189 10.2127 15.8558 10.5757 15.5466 10.973L14.5161 10.3745L13.731 11.7382L14.7566 12.3318C14.5603 12.7929 14.4278 13.2883 14.3542 13.8034H13.1765V15.378H14.3395C14.4033 15.898 14.5358 16.3983 14.7222 16.8643L13.7261 17.4383L14.5112 18.802L15.4926 18.2329C15.8067 18.6499 16.1747 19.0178 16.582 19.3415L16.0226 20.3128L17.3868 21.0977L17.9364 20.1411C18.4124 20.3422 18.9178 20.4845 19.4478 20.5532V21.6471H21.018V20.5581C21.5529 20.4894 22.0632 20.3521 22.5392 20.1558L23.079 21.0928L24.4432 20.3079L23.9034 19.371C24.3205 19.0472 24.6934 18.6744 25.0173 18.2575L25.9545 18.797L26.7397 17.4334L25.7975 16.8889C25.9938 16.413 26.1263 15.9029 26.195 15.3731H27.2942V15.378ZM20.2672 16.7466C19.1043 16.7466 18.1621 15.7999 18.1621 14.6422C18.1621 13.4796 19.1092 12.5378 20.2672 12.5378C21.4302 12.5378 22.3724 13.4845 22.3724 14.6422C22.3724 15.7999 21.4253 16.7466 20.2672 16.7466Z" fill="#232323" fill-opacity="0.15"/>
<path d="M43.031 36.4267V34.5556H41.8614C41.7728 33.8826 41.6015 33.2451 41.3475 32.6431L42.3635 32.0587L41.4243 30.4354L40.4024 31.0257C40.0008 30.5003 39.5282 30.0281 39.0025 29.6267L39.5932 28.6056L37.9688 27.667L37.3781 28.6882C36.7756 28.4344 36.1377 28.2632 35.4643 28.1806V27H33.5918V28.1747C32.9184 28.2573 32.2805 28.4285 31.678 28.6823L31.0932 27.667L29.4688 28.6056L30.0536 29.6149C29.522 30.0163 29.0494 30.4885 28.6478 31.0139L27.6436 30.4354L26.7044 32.0587L27.7027 32.6372C27.4487 33.2392 27.2715 33.8885 27.1828 34.5615H26.031V36.4326H27.1769C27.2596 37.1056 27.4368 37.7549 27.6849 38.3628L26.6985 38.9295L27.6377 40.5528L28.6241 39.9861C29.0317 40.5174 29.5043 40.9955 30.0359 41.4028L29.4688 42.3885L31.0932 43.3271L31.6603 42.3472C32.2687 42.601 32.9184 42.7781 33.5918 42.8608V44H35.4643V42.8608C36.1377 42.7722 36.7874 42.601 37.3958 42.3413L37.9688 43.3271L39.5932 42.3885L39.0202 41.3969C39.5519 40.9896 40.0244 40.5174 40.4261 39.9861L41.4243 40.5646L42.3635 38.9413L41.3594 38.3628C41.6134 37.7608 41.7847 37.1115 41.8673 36.4444H43.031V36.4267ZM34.9209 33.7174V29.8333C36.6988 29.9573 38.2582 30.9017 39.2152 32.2889L35.8364 34.2368C35.5942 33.983 35.2753 33.8 34.9209 33.7174ZM35.5588 35.5118C35.5588 36.0844 35.0922 36.5507 34.5192 36.5507C33.9462 36.5507 33.4796 36.0844 33.4796 35.5118C33.4796 34.9392 33.9462 34.4729 34.5192 34.4729C35.0922 34.467 35.5588 34.9392 35.5588 35.5118ZM34.0466 29.8392V33.741C33.71 33.8295 33.4087 34.0184 33.1783 34.2663L29.8055 32.3184C30.7447 30.9313 32.2864 29.9809 34.0466 29.8392ZM28.825 35.5118C28.825 34.6382 29.0199 33.8118 29.3743 33.074L32.753 35.0219C32.7117 35.1753 32.6881 35.3406 32.6881 35.5059C32.6881 35.683 32.7117 35.8483 32.7589 36.0076L29.3802 37.9556C29.0199 37.2177 28.825 36.3854 28.825 35.5118ZM33.1901 36.7691C33.4205 37.0111 33.7159 37.1941 34.0466 37.2826V41.1844C32.2923 41.0368 30.7565 40.0983 29.8114 38.717L33.1901 36.7691ZM34.9209 41.1903V37.3003C35.2694 37.2236 35.5883 37.0465 35.8305 36.7986L39.2093 38.7465C38.2464 40.1278 36.6929 41.0663 34.9209 41.1903ZM39.6464 37.9969L36.2735 36.0549C36.3267 35.8837 36.3562 35.7007 36.3562 35.5118C36.3562 35.3288 36.3267 35.1517 36.2794 34.9865L39.6523 33.0385C40.0126 33.7882 40.2193 34.6264 40.2193 35.5118C40.2193 36.4031 40.0126 37.2472 39.6464 37.9969Z" fill="#232323" fill-opacity="0.8"/>
<path d="M26.0961 31.5862L26.226 30.6325L25.5492 30.5403C25.5479 30.2153 25.5032 29.8966 25.4229 29.5942L26.0629 29.3323L25.6986 28.4388L25.0493 28.7025C24.8892 28.4287 24.6956 28.1778 24.4707 27.9559L24.9053 27.3958L24.1414 26.8061L23.703 27.3718C23.4352 27.2199 23.145 27.0985 22.8373 27.0171L22.935 26.2988L21.981 26.169L21.8828 26.8902C21.567 26.8897 21.2546 26.9322 20.9585 27.0103L20.68 26.3349L19.7862 26.6989L20.0643 27.3773C19.7943 27.5318 19.5436 27.7223 19.3229 27.9381L18.7463 27.4893L18.1565 28.2529L18.7305 28.6983C18.5731 28.9623 18.4517 29.2523 18.3643 29.5592L17.6488 29.4618L17.5186 30.4185L18.2251 30.5147C18.2209 30.8359 18.26 31.1508 18.3348 31.4494L17.6821 31.7157L18.0463 32.6092L18.6897 32.3447C18.846 32.624 19.0392 32.8779 19.2598 33.1083L18.8396 33.6522L19.6035 34.2419L20.0166 33.7062C20.2891 33.8677 20.5845 33.996 20.9008 34.0815L20.8103 34.7461L21.7644 34.876L21.8544 34.2144C22.1851 34.2169 22.5065 34.1757 22.812 34.0958L23.0624 34.7097L23.9562 34.3457L23.7057 33.7318C23.9859 33.5696 24.2433 33.3739 24.4746 33.1474L24.9994 33.5527L25.5892 32.7891L25.0618 32.3804C25.2205 32.1075 25.3432 31.8085 25.4287 31.4923L26.0966 31.5832L26.0961 31.5862ZM21.7135 31.8365C21.0069 31.7403 20.5128 31.0872 20.6086 30.3838C20.7047 29.6774 21.358 29.1835 22.0616 29.2793C22.7682 29.3755 23.2624 30.0287 23.1666 30.732C23.0709 31.4354 22.4171 31.9323 21.7135 31.8365Z" fill="#232323" fill-opacity="0.8"/>
<path d="M34.031 22.6713V21.337H33.0842C33.0216 20.8909 32.9007 20.4614 32.7338 20.0612L33.5639 19.5817L32.8965 18.4225L32.054 18.9062C31.7828 18.5601 31.47 18.2516 31.1196 17.9889L31.6118 17.1383L30.4523 16.4712L29.9559 17.3301C29.5597 17.1716 29.1384 17.0591 28.7005 17.0049V16H27.3657V17.009C26.9319 17.0674 26.5107 17.1842 26.1186 17.3468L25.6097 16.4712L24.4502 17.1383L24.9591 18.0181C24.617 18.2808 24.3084 18.5893 24.0456 18.927L23.1697 18.4183L22.5023 19.5775L23.3741 20.082C23.2072 20.4739 23.0946 20.8951 23.032 21.3329H22.031V22.6713H23.0195C23.0738 23.1133 23.1864 23.5386 23.3449 23.9347L22.4982 24.4225L23.1655 25.5817L23.9997 25.098C24.2667 25.4524 24.5795 25.7651 24.9257 26.0403L24.4502 26.8659L25.6097 27.533L26.0769 26.7199C26.4815 26.8909 26.9111 27.0118 27.3616 27.0702V28H28.6963V27.0744C29.1509 27.016 29.5847 26.8992 29.9893 26.7325L30.4481 27.5288L31.6076 26.8617L31.1488 26.0653C31.5034 25.7901 31.8204 25.4732 32.0957 25.1188L32.8923 25.5775L33.5597 24.4183L32.7588 23.9555C32.9257 23.5511 33.0383 23.1174 33.0967 22.6671H34.031V22.6713ZM28.0581 23.8346C27.0696 23.8346 26.2688 23.0299 26.2688 22.0459C26.2688 21.0577 27.0738 20.2571 28.0581 20.2571C29.0466 20.2571 29.8475 21.0618 29.8475 22.0459C29.8475 23.0299 29.0425 23.8346 28.0581 23.8346Z" fill="#232323" fill-opacity="0.8"/>
<path d="M60.2338 28.2267C60.2338 27.5133 59.6654 26.8125 58.967 26.6667L56.5757 26.1623C55.8813 26.0165 55.1861 25.3284 55.038 24.6348L54.4439 22.4025C54.2262 21.7255 54.4816 20.7819 55.0104 20.3083L56.8286 18.6807C57.3578 18.2046 57.5018 17.3138 57.1448 16.6975L55.2523 13.4209C54.8986 12.8031 54.0552 12.4829 53.3774 12.7038L51.0576 13.4636C50.3815 13.6843 49.4371 13.4351 48.9596 12.9096L47.3271 11.277C46.7991 10.797 46.55 9.85272 46.7723 9.17647L47.5329 6.85676C47.7537 6.18133 47.4312 5.33536 46.8134 4.98077L43.5391 3.08908C42.922 2.73436 42.0296 2.87625 41.5535 3.40524L39.9283 5.22364C39.4522 5.75249 38.5088 6.01024 37.8317 5.79024L35.5996 5.19829C34.906 5.0469 34.2179 4.35494 34.072 3.65816L33.5698 1.26586C33.4225 0.567566 32.7209 0 32.0101 0H28.225C27.5141 0 26.8125 0.567566 26.6676 1.26586L26.6227 1.47552L26.1631 3.65816C26.0181 4.35494 25.3292 5.0469 24.6356 5.19829L22.4034 5.79024C21.7272 6.01024 20.7829 5.75249 20.3092 5.22364L18.6793 3.40524C18.2057 2.87625 17.3133 2.73436 16.6985 3.08908L13.422 4.98077C12.8041 5.33536 12.4817 6.18133 12.7023 6.85676L13.4628 9.17647C13.6851 9.85272 13.4361 10.797 12.9079 11.277L11.2756 12.9096C10.7978 13.4351 9.85366 13.6843 9.17756 13.4636L6.85545 12.7038C6.18004 12.4806 5.33672 12.8031 4.97966 13.4209L3.08802 16.6975C2.73345 17.3123 2.87754 18.2046 3.40651 18.6807L5.22486 20.3083C5.75205 20.7819 6.00895 21.7255 5.79158 22.4025L5.19731 24.6348C5.04909 25.3284 4.35384 26.0165 3.65956 26.1623L1.26734 26.6667C0.569889 26.8118 0 27.5134 0 28.2244V32.0094C0 32.7204 0.569889 33.4228 1.26734 33.5669L3.65956 34.0715C4.35384 34.2166 5.04909 34.9054 5.19731 35.6006L5.79158 37.8328C6.00895 38.5091 5.75205 39.4519 5.22486 39.9255L3.40569 41.5556C2.87754 42.0292 2.73345 42.9224 3.08802 43.5364L4.97966 46.8155C5.33672 47.4311 6.18004 47.7558 6.85545 47.5328L9.17756 46.7729C9.85366 46.552 10.798 46.8012 11.2756 47.3262L12.9079 48.9593C13.4361 49.4377 13.6853 50.3812 13.4628 51.0576L12.7023 53.3795C12.4816 54.0542 12.8039 54.8976 13.422 55.2554L16.6985 57.1458C17.3133 57.502 18.2055 57.36 18.6793 56.8288L20.3068 55.0111C20.7829 54.4829 21.7272 54.2278 22.4034 54.4437L24.6356 55.038C24.8121 55.0756 24.9871 55.15 25.1526 55.2492C25.643 55.5408 26.0543 56.0563 26.1631 56.5782L26.6676 58.9681C26.8125 59.6662 27.5141 60.2353 28.225 60.2353L32.0101 60.2339C32.7209 60.2339 33.4225 59.6662 33.5698 58.9681L34.072 56.5782C34.2179 55.8798 34.906 55.1891 35.5996 55.0378L37.8317 54.4435C38.5088 54.2278 39.4522 54.4828 39.9283 55.011L41.5535 56.8303C42.0296 57.3599 42.922 57.5019 43.5391 57.1457L46.8134 55.2552C47.4297 54.8973 47.7536 54.0541 47.5329 53.3777L46.7707 51.0573C46.5502 50.3809 46.7992 49.4373 47.3272 48.959L48.3441 47.939L41.5208 45.5224C38.3356 47.8871 34.3915 49.2853 30.1179 49.2853C29.8792 49.2853 29.6474 49.2579 29.4092 49.249C19.1541 48.8739 10.9498 40.4636 10.9498 30.1158C10.9498 19.5308 19.5324 10.9478 30.1178 10.9478C30.7169 10.9478 31.3071 10.9848 31.8912 11.0376C41.6443 11.9346 49.2859 20.1296 49.2859 30.1157C49.2859 33.8747 48.1988 37.3782 46.3292 40.338L48.3613 47.9199L48.9596 47.3288C49.4372 46.8006 50.3815 46.5514 51.0576 46.7724L53.3774 47.5322C54.0552 47.7553 54.8986 47.4306 55.2523 46.8149L57.1448 43.5375C57.5018 42.9219 57.3578 42.031 56.8286 41.5551L55.0104 39.9275C54.4816 39.453 54.2262 38.5086 54.4439 37.8323L55.038 35.6001C55.1861 34.9048 55.8813 34.216 56.5757 34.071L58.967 33.5663C59.6654 33.4223 60.2353 32.7198 60.2353 32.0089L60.2338 28.2267Z" fill="#36255F"/>
<path d="M60.2353 53.1304V51.3513H58.9729C58.8895 50.7565 58.7282 50.1839 58.5057 49.6502L59.6125 49.0108L58.7226 47.4653L57.5993 48.1102C57.2378 47.6488 56.8207 47.2374 56.3535 46.8871L57.0097 45.753L55.4637 44.8635L54.8019 46.0087C54.2736 45.7975 53.7119 45.6474 53.1279 45.5751V44.2353H51.3483V45.5807C50.7699 45.6585 50.2082 45.8142 49.6854 46.031L49.007 44.8635L47.4609 45.753L48.1394 46.926C47.6834 47.2763 47.2718 47.6877 46.9215 48.138L45.7536 47.4598L44.8638 49.0053L46.0261 49.678C45.8036 50.2005 45.6535 50.762 45.57 51.3458H44.2353V53.1304H45.5534C45.6257 53.7197 45.7758 54.2867 45.9871 54.8149L44.8582 55.4653L45.748 57.0108L46.8603 56.3659C47.2162 56.8385 47.6333 57.2554 48.0949 57.6224L47.4609 58.7231L49.007 59.6126L49.6298 58.5285C50.1693 58.7565 50.7421 58.9177 51.3427 58.9955V60.2353H53.1224V59.0011C53.7286 58.9233 54.3069 58.7676 54.8464 58.5452L55.4581 59.6071L57.0042 58.7176L56.3924 57.6557C56.8651 57.2888 57.2878 56.8663 57.6549 56.3937L58.7171 57.0053L59.6069 55.4598L58.5391 54.8427C58.7616 54.3034 58.9117 53.7252 58.9896 53.1248H60.2353V53.1304ZM52.2715 54.6814C50.9534 54.6814 49.8857 53.6085 49.8857 52.2964C49.8857 50.9789 50.959 49.9115 52.2715 49.9115C53.5895 49.9115 54.6573 50.9844 54.6573 52.2964C54.6573 53.6085 53.584 54.6814 52.2715 54.6814Z" fill="#36255F"/>
<path d="M58.4777 51.4208L58.5381 51.8513H58.9729H59.7353V52.6248H58.9896H58.5502L58.4937 53.0605C58.4211 53.6204 58.2816 54.1558 58.0769 54.652L57.91 55.0566L58.2889 55.2756L58.9245 55.6429L58.5332 56.3225L57.9043 55.9604L57.527 55.7432L57.26 56.087C56.9186 56.5266 56.5256 56.9194 56.0859 57.2607L55.7417 57.5279L55.9592 57.9053L56.3212 58.5337L55.6419 58.9245L55.2796 58.2956L55.0609 57.916L54.6558 58.083C54.1568 58.2887 53.6211 58.433 53.0587 58.5052L52.6224 58.5612V59.0011V59.7353H51.8427V58.9955V58.5562L51.407 58.4997C50.8538 58.428 50.3247 58.2793 49.8244 58.068L49.4168 57.8957L49.1963 58.2795L48.8227 58.9298L48.1438 58.5392L48.5282 57.8719L48.743 57.4989L48.406 57.231C47.9741 56.8876 47.5876 56.5004 47.2597 56.0651L46.993 55.711L46.6095 55.9334L45.9311 56.3267L45.5409 55.649L46.2368 55.2481L46.6124 55.0316L46.4514 54.6291C46.2555 54.1395 46.1165 53.6143 46.0496 53.0695L45.9958 52.6304H45.5534H44.7353V51.8458H45.57H46.0037L46.065 51.4165C46.1429 50.8712 46.2824 50.3523 46.4861 49.8738L46.6594 49.4668L46.2765 49.2452L45.546 48.8224L45.9365 48.1442L46.6704 48.5704L47.0479 48.7897L47.3161 48.445C47.6409 48.0276 48.0223 47.6464 48.4439 47.3226L48.7918 47.0554L48.5722 46.6757L48.1446 45.9365L48.8248 45.5452L49.2531 46.2822L49.4729 46.6604L49.877 46.4928C50.3613 46.292 50.8811 46.148 51.415 46.0762L51.8483 46.0179V45.5807V44.7353H52.6279V45.5751V46.017L53.0665 46.0713C53.6054 46.138 54.1255 46.2768 54.6162 46.473L55.0182 46.6337L55.2348 46.2589L55.6469 45.5458L56.3259 45.9364L55.9207 46.6367L55.6984 47.0209L56.0536 47.2872C56.4845 47.6103 56.8704 47.9906 57.2057 48.4186L57.4727 48.7594L57.8482 48.5438L58.5385 48.1476L58.93 48.8276L58.2556 49.2172L57.8752 49.437L58.0442 49.8425C58.2509 50.3384 58.4005 50.8698 58.4777 51.4208ZM49.3857 52.2964C49.3857 53.884 50.6767 55.1814 52.2715 55.1814C53.8599 55.1814 55.1573 53.8848 55.1573 52.2964C55.1573 50.7089 53.8663 49.4115 52.2715 49.4115C50.6838 49.4115 49.3857 50.7018 49.3857 52.2964Z" stroke="white" stroke-opacity="0.5"/>
<path d="M64 59.8206V58.7741H63.2574C63.2083 58.4242 63.1135 58.0874 62.9826 57.7734L63.6336 57.3974L63.1102 56.4882L62.4494 56.8676C62.2368 56.5962 61.9914 56.3542 61.7166 56.1481L62.1026 55.481L61.1932 54.9578L60.8039 55.6314C60.4931 55.5072 60.1627 55.4189 59.8192 55.3764V54.5882H58.7724V55.3796C58.4321 55.4254 58.1017 55.517 57.7942 55.6445L57.3951 54.9578L56.4857 55.481L56.8848 56.171C56.6165 56.3771 56.3744 56.619 56.1683 56.8839L55.4813 56.485L54.9579 57.3941L55.6416 57.7898C55.5108 58.0972 55.4225 58.4275 55.3734 58.7709H54.5883V59.8206H55.3636C55.4061 60.1673 55.4944 60.5008 55.6187 60.8115L54.9547 61.1941L55.4781 62.1033L56.1323 61.7239C56.3417 62.0019 56.5871 62.2471 56.8586 62.463L56.4857 63.1105L57.3951 63.6337L57.7615 62.996C58.0788 63.1301 58.4158 63.2249 58.7691 63.2707V64H59.8159V63.274C60.1725 63.2282 60.5127 63.1366 60.8301 63.0058L61.1899 63.6305L62.0994 63.1072L61.7395 62.4826C62.0176 62.2668 62.2662 62.0182 62.4821 61.7403L63.1069 62.1L63.6304 61.1909L63.0023 60.8279C63.1331 60.5106 63.2214 60.1705 63.2672 59.8173H64V59.8206ZM59.3154 60.733C58.5401 60.733 57.912 60.1019 57.912 59.3301C57.912 58.555 58.5434 57.9271 59.3154 57.9271C60.0907 57.9271 60.7188 58.5583 60.7188 59.3301C60.7188 60.1019 60.0875 60.733 59.3154 60.733Z" fill="#36255F"/>
<path d="M62.7623 58.8436L62.8226 59.2741H63.2574H63.5V59.3173H63.2672H62.8279L62.7714 59.7531C62.7308 60.0657 62.6531 60.363 62.54 60.6372L62.3731 61.0418L62.7521 61.2608L62.948 61.374L62.9231 61.4172L62.7316 61.3069L62.3543 61.0897L62.0872 61.4335C61.8969 61.6785 61.678 61.8974 61.4329 62.0876L61.0888 62.3547L61.3063 62.7322L61.4164 62.9233L61.3737 62.9479L61.2633 62.7562L61.0446 62.3766L60.6395 62.5436C60.3626 62.6577 60.0651 62.7379 59.7523 62.7781L59.3159 62.8341V63.274V63.5H59.2691V63.2707V62.8313L58.8333 62.7749C58.5274 62.7352 58.2342 62.653 57.9561 62.5355L57.5484 62.3632L57.328 62.7469L57.2108 62.9508L57.1686 62.9266L57.2919 62.7125L57.5067 62.3395L57.1697 62.0716C56.9278 61.8793 56.7131 61.6638 56.5317 61.4231L56.265 61.069L55.8816 61.2913L55.6611 61.4191L55.6374 61.3778L55.8684 61.2447L56.244 61.0283L56.083 60.6258C55.9741 60.3536 55.8969 60.062 55.8599 59.7597L55.806 59.3206H55.3636H55.0883V59.2709H55.3734H55.807L55.8684 58.8416C55.9119 58.5367 55.9896 58.249 56.1017 57.9856L56.2749 57.5786L55.8921 57.357L55.6402 57.2112L55.6642 57.1694L55.9172 57.3163L56.2948 57.5356L56.563 57.191C56.7435 56.959 56.9554 56.7472 57.1893 56.5676L57.5372 56.3004L57.3176 55.9207L57.1694 55.6645L57.2129 55.6394L57.3619 55.8957L57.5817 56.274L57.9858 56.1064C58.2548 55.9948 58.5434 55.9149 58.839 55.8752L59.2724 55.8168V55.3796V55.0882H59.3192V55.3764V55.8183L59.7578 55.8726C60.0563 55.9095 60.345 55.9864 60.6182 56.0957L61.0202 56.2564L61.2368 55.8816L61.3764 55.64L61.4188 55.6644L61.2838 55.8977L61.0615 56.2819L61.4167 56.5482C61.6553 56.7271 61.8694 56.938 62.0558 57.1759L62.3228 57.5168L62.6983 57.3012L62.9261 57.1705L62.9512 57.2142L62.7325 57.3405L62.3521 57.5603L62.5211 57.9658C62.6362 58.242 62.7194 58.5376 62.7623 58.8436ZM57.412 59.3301C57.412 60.3774 58.2634 61.233 59.3154 61.233C60.3634 61.233 61.2188 60.3782 61.2188 59.3301C61.2188 58.2828 60.3675 57.4271 59.3154 57.4271C58.2681 57.4271 57.412 58.278 57.412 59.3301Z" stroke="white" stroke-opacity="0.8"/>
</svg>
